REM DIRINDEX 1
REM DIRNAME cjc069
TITLE ""
FILE "Disk2Track63.mp3" MP3
  TRACK 01 AUDIO
    TITLE "1:cjc069_0885"
    INDEX 01 00:00:00
  TRACK 02 AUDIO
    TITLE "1:cjc069_0886"
    INDEX 01 00:07:60
  TRACK 03 AUDIO
    TITLE "1:cjc069_0887"
    INDEX 01 00:21:11
  TRACK 04 AUDIO
    TITLE "1:cjc069_0888"
    INDEX 01 00:28:43
  TRACK 05 AUDIO
    TITLE "0:"
    INDEX 01 00:38:31
